<svg width="18" height="19" viewBox="0 0 18 19" fill="none" xmlns="http://www.w3.org/2000/svg">
    <path
        d="M9.16671 7.50001H10.8334V5.00001H13.3334V3.33334H10.8334V0.833344H9.16671V3.33334H6.66671V5.00001H9.16671V7.50001ZM5.83337 15C5.39135 15 4.96742 15.1756 4.65486 15.4882C4.3423 15.8007 4.16671 16.2246 4.16671 16.6667C4.16671 17.1087 4.3423 17.5326 4.65486 17.8452C4.96742 18.1577 5.39135 18.3333 5.83337 18.3333C6.2754 18.3333 6.69932 18.1577 7.01188 17.8452C7.32445 17.5326 7.50004 17.1087 7.50004 16.6667C7.50004 16.2246 7.32445 15.8007 7.01188 15.4882C6.69932 15.1756 6.2754 15 5.83337 15ZM14.1667 15C13.7247 15 13.3008 15.1756 12.9882 15.4882C12.6756 15.8007 12.5 16.2246 12.5 16.6667C12.5 17.1087 12.6756 17.5326 12.9882 17.8452C13.3008 18.1577 13.7247 18.3333 14.1667 18.3333C14.6087 18.3333 15.0327 18.1577 15.3452 17.8452C15.6578 17.5326 15.8334 17.1087 15.8334 16.6667C15.8334 16.2246 15.6578 15.8007 15.3452 15.4882C15.0327 15.1756 14.6087 15 14.1667 15ZM5.97504 12.2917L6.00004 12.1917L6.75004 10.8333H12.9584C13.5834 10.8333 14.1334 10.4917 14.4167 9.97501L17.6334 4.13334L16.1834 3.33334H16.175L15.2584 5.00001L12.9584 9.16668H7.10837L7.00004 8.94168L5.13337 5.00001L4.34171 3.33334L3.55837 1.66668H0.833374V3.33334H2.50004L5.50004 9.65834L4.37504 11.7C4.24171 11.9333 4.16671 12.2083 4.16671 12.5C4.16671 12.942 4.3423 13.366 4.65486 13.6785C4.96742 13.9911 5.39135 14.1667 5.83337 14.1667H15.8334V12.5H6.18337C6.07504 12.5 5.97504 12.4083 5.97504 12.2917Z"
        fill="#13957A" />
</svg>