<svg width="18" height="17" viewBox="0 0 18 17" fill="none" xmlns="http://www.w3.org/2000/svg">
    <path
        d="M9.35355 14.4386L9.4348 14.3573C11.564 12.4294 13.3658 10.7971 14.6314 9.31835C15.8939 7.84314 16.7 6.43505 16.7 4.95C16.7 2.87386 15.1261 1.3 13.05 1.3C11.5899 1.3 10.1622 2.16698 9.51485 3.424H8.48515C7.83779 2.16698 6.41006 1.3 4.95 1.3C2.87386 1.3 1.3 2.87386 1.3 4.95C1.3 6.43499 2.10607 7.84306 3.36735 9.31818C4.62957 10.7944 6.42522 12.4237 8.54525 14.3474L8.56466 14.365L8.56501 14.3653L8.66366 14.455L9.01643 14.7757L9.35355 14.4386ZM8.62058 2.19764L9 2.63971L9.37942 2.19764C10.2689 1.16123 11.6352 0.5 13.05 0.5C15.5465 0.5 17.5 2.44574 17.5 4.95C17.5 6.48212 16.8135 7.91559 15.5035 9.51832C14.188 11.1278 12.2965 12.8462 9.96913 14.9566L9.96841 14.9573L9 15.8388L8.03159 14.9573L8.03087 14.9566C5.70354 12.8462 3.81203 11.1278 2.49651 9.51832C1.18648 7.91559 0.5 6.48212 0.5 4.95C0.5 2.44574 2.45355 0.5 4.95 0.5C6.36485 0.5 7.73106 1.16123 8.62058 2.19764Z"
        stroke="url(#paint0_linear_116_134)" />
    <defs>
        <linearGradient id="paint0_linear_116_134" x1="9" y1="0" x2="9" y2="16.515"
            gradientUnits="userSpaceOnUse">
            <stop stop-color="#F50C0C" />
            <stop offset="1" stop-color="#F50C0C" stop-opacity="0" />
        </linearGradient>
    </defs>
</svg>