<svg xmlns="http://www.w3.org/2000/svg" xmlns:xlink="http://www.w3.org/1999/xlink" version="1.1" x="0px" y="0px" viewBox="0 0 100 125" style="enable-background:new 0 0 100 100;" xml:space="preserve"><path d="M82,50c0,17.645-14.355,32-32,32S18,67.645,18,50c0-1.105,0.895-2,2-2s2,0.895,2,2  c0,15.439,12.561,28,28,28s28-12.561,28-28S65.439,22,50,22c-7.442,0-14.351,2.892-19.548,8H38c1.105,0,2,0.895,2,2s-0.895,2-2,2H26  c-1.105,0-2-0.895-2-2V20c0-1.105,0.895-2,2-2s2,0.895,2,2v6.822C33.901,21.191,41.654,18,50,18C67.645,18,82,32.355,82,50z M68,42  v18c0,0.834-0.518,1.58-1.297,1.873l-16,6C50.477,67.957,50.238,68,50,68s-0.477-0.043-0.703-0.127l-16-6  C32.518,61.58,32,60.834,32,60V42c0-0.834,0.518-1.58,1.297-1.873l16-6c0.453-0.168,0.953-0.168,1.406,0l16,6  C67.482,40.42,68,41.166,68,42z M39.695,42L50,45.863L60.305,42L50,38.137L39.695,42z M36,58.613l12,4.5V49.387l-12-4.5V58.613z   M64,58.613V44.887l-12,4.5v13.727L64,58.613z"/><text x="0" y="115" fill="#000000" font-size="5px" font-weight="bold" font-family="'Helvetica Neue', Helvetica, Arial-Unicode, Arial, Sans-serif"></text><text x="0" y="120" fill="#000000" font-size="5px" font-weight="bold" font-family="'Helvetica Neue', Helvetica, Arial-Unicode, Arial, Sans-serif"></text></svg>