 <svg width="11" height="11" viewBox="0 0 11 11" fill="none" xmlns="http://www.w3.org/2000/svg">
    <path
        d="M9.98754 4.62656L7.39532 6.84241L8.32111 10.0359C8.38283 10.1662 8.3211 10.3617 8.19767 10.4269C8.13595 10.4921 8.07423 10.4921 8.01251 10.4921C7.9508 10.4921 7.88908 10.4921 7.82736 10.4269L5.29687 8.47172L2.70465 10.4269C2.58121 10.4921 2.45777 10.4921 2.33433 10.4269C2.21089 10.3617 2.14918 10.1662 2.2109 10.0359L3.01325 6.77724L0.482749 4.62656C0.35931 4.56138 0.297602 4.36586 0.359321 4.23552C0.421041 4.10517 0.544479 3.97483 0.667918 3.97483H3.93903L4.92655 0.976898C4.98827 0.846553 5.11171 0.716212 5.23514 0.716212C5.35858 0.716212 5.48202 0.846553 5.54374 0.976898L6.59298 3.97483H9.80237C9.92581 3.97483 10.0492 4.10517 10.111 4.23552C10.111 4.36586 10.0493 4.49621 9.98754 4.62656Z"
        fill="#FABB5D" stroke="black" stroke-width="0.543103" stroke-miterlimit="10"
        stroke-linejoin="round" />
</svg>